<svg xmlns="http://www.w3.org/2000/svg" viewBox="0 0 473.673 473.673">
  <defs/>
  <g fill="#c42126">
    <path d="M236.836 473.673c75.779 0 143.185-35.619 186.534-90.991H298.632c-16.103 53.678-25.09 90.991-61.796 90.991zM222.79 473.265c-.045 0-.086-.007-.131-.007.045 0 .09.007.131.007zM298.632 90.991h124.741C380.02 35.627 312.613 0 236.836 0c36.706 0 45.693 37.313 61.796 90.991zM222.659.423c.045 0 .086-.007.131-.007-.041-.001-.086-.001-.131.007z"/>
  </g>
  <path fill="#ffc40c" d="M423.376 90.991H298.632c25.175 83.909 25.175 207.793 0 291.69h124.733c31.487-40.208 50.308-90.808 50.308-145.843.004-55.031-18.818-105.635-50.297-145.847z"/>
  <g fill="#c42126">
    <path d="M236.836 473.673c-4.712 0-9.394-.138-14.046-.408 4.718.262 9.409.408 14.046.408zM222.79.415C227.441.138 232.124 0 236.836 0c-4.637 0-9.328.153-14.046.415z"/>
  </g>
  <g fill="#d32030">
    <path d="M316.053 382.682H50.309c40.623 51.894 102.386 86.44 172.349 90.576.045 0 .086.007.131.007 4.652.269 9.334.408 14.046.408 36.707 0 63.112-37.313 79.218-90.991zM50.309 90.991h265.745C299.947 37.313 273.542 0 236.836 0c-4.712 0-9.394.138-14.046.415-.045 0-.086.007-.131.007-69.964 4.133-131.727 38.683-172.35 90.569z"/>
  </g>
  <path fill="#ffd034" d="M.001 236.838c0 55.035 18.821 105.635 50.308 145.843h265.745c25.175-83.901 25.175-207.786 0-291.69H50.309C18.822 131.203.001 181.807.001 236.838z"/>
</svg>
