<svg xmlns="http://www.w3.org/2000/svg" viewBox="0 0 246 40">
  <defs/>
  <defs>
    <linearGradient id="b" x1=".5" x2=".5" y2=".714" gradientUnits="objectBoundingBox">
      <stop offset="0" stop-color="#ffe356"/>
      <stop offset="1" stop-color="#d8bd2d"/>
    </linearGradient>
    <linearGradient id="c" x1=".5" x2=".5" y2=".714" gradientUnits="objectBoundingBox">
      <stop offset="0" stop-color="#475b7d"/>
      <stop offset="1" stop-color="#202e49"/>
    </linearGradient>
    <linearGradient id="d" x1=".5" x2=".5" y2=".714" gradientUnits="objectBoundingBox">
      <stop offset="0" stop-color="#55c9d1"/>
      <stop offset="1" stop-color="#2c979f"/>
    </linearGradient>
    <clipPath id="a">
      <path d="M0 0h246v40H0z"/>
    </clipPath>
  </defs>
  <g clip-path="url(#a)">
    <path fill="url(#b)" d="M26.639-21H16.99a5.09 5.09 0 01-4.83-3.482L0-61h9.646a5.1 5.1 0 014.834 3.486z" transform="translate(0 61)"/>
    <path fill="url(#c)" d="M56.411-61L43.092-21l-6.659-20 5.5-16.516A5.089 5.089 0 0146.76-61z" transform="translate(0 61)"/>
    <path fill="url(#d)" d="M43.092-21h-9.646a5.1 5.1 0 01-4.835-3.486L16.453-61H26.1a5.091 5.091 0 014.83 3.482z" transform="translate(0 61)"/>
    <path fill="#202e49" d="M71.737 12.262a2.865 2.865 0 01-.263 1.216 3.2 3.2 0 01-.718 1 3.5 3.5 0 01-1.058.682 3.272 3.272 0 01-1.286.254 3.041 3.041 0 01-1.243-.254 3.493 3.493 0 01-1.024-.682 3.161 3.161 0 01-.7-1 2.95 2.95 0 01-.253-1.216 3.052 3.052 0 01.253-1.242 3.226 3.226 0 01.7-1.016 3.289 3.289 0 011.024-.682 3.154 3.154 0 011.243-.245 3.4 3.4 0 011.286.245 3.306 3.306 0 011.058.678 3.262 3.262 0 01.718 1.016 2.963 2.963 0 01.263 1.246zm-.561 4.97v18.147h-5.425V17.232zM80.119 9.182v26.2h-5.425v-26.2zM83.111 19.752a11.031 11.031 0 013.649-2.161 12.78 12.78 0 014.3-.709 7.861 7.861 0 012.967.534 6.381 6.381 0 012.235 1.484 6.5 6.5 0 011.409 2.266 8.14 8.14 0 01.491 2.871v11.339h-2.486a2.532 2.532 0 01-1.164-.21 1.608 1.608 0 01-.656-.875l-.385-1q-.683.577-1.312 1.015a8.29 8.29 0 01-1.3.744 6.444 6.444 0 01-1.435.455 8.849 8.849 0 01-1.689.148 7.4 7.4 0 01-2.257-.324 4.691 4.691 0 01-1.724-.953 4.186 4.186 0 01-1.093-1.567 5.635 5.635 0 01-.386-2.161 4.507 4.507 0 01.49-1.986 4.907 4.907 0 011.7-1.837 10.832 10.832 0 013.255-1.392 21.838 21.838 0 015.163-.629v-.77a3.325 3.325 0 00-.656-2.3 2.414 2.414 0 00-1.864-.709 4.963 4.963 0 00-1.574.21 7.021 7.021 0 00-1.094.473q-.482.262-.937.473a2.586 2.586 0 01-1.085.21 1.561 1.561 0 01-.945-.281 2.411 2.411 0 01-.63-.665zm9.765 8.243a17.931 17.931 0 00-2.677.279 6.535 6.535 0 00-1.662.525 2 2 0 00-.849.718 1.7 1.7 0 00-.236.875 1.525 1.525 0 00.506 1.3 2.477 2.477 0 001.488.376 4.325 4.325 0 001.838-.367 5.612 5.612 0 001.592-1.191zM97.548 9.6L93 14.205a2.7 2.7 0 01-.77.568 2.408 2.408 0 01-.98.166h-3.256l2.38-4.287a2.332 2.332 0 01.7-.779A2.211 2.211 0 0192.3 9.6zM106.351 19.192a13 13 0 011.085-.91 6.36 6.36 0 011.2-.709 7.165 7.165 0 011.383-.455 7.408 7.408 0 011.619-.166 6.362 6.362 0 012.634.516A5.481 5.481 0 01116.2 18.9a6.224 6.224 0 011.189 2.188 9.048 9.048 0 01.4 2.756v11.532h-5.424V23.847a3.176 3.176 0 00-.613-2.074 2.2 2.2 0 00-1.8-.744 3.785 3.785 0 00-1.671.377 6.731 6.731 0 00-1.514 1.023v12.95h-5.425V17.232h3.36a1.277 1.277 0 011.33.91zM145.078 17.232l-7.035 18.147h-4.935l-7.035-18.147h4.515a1.67 1.67 0 01.971.271 1.355 1.355 0 01.534.674l2.52 8.137q.331 1 .587 1.943t.446 1.89a28.968 28.968 0 011.067-3.833l2.625-8.137a1.364 1.364 0 01.525-.674 1.539 1.539 0 01.91-.271zM152.673 12.262a2.879 2.879 0 01-.262 1.216 3.2 3.2 0 01-.718 1 3.508 3.508 0 01-1.059.682 3.268 3.268 0 01-1.286.254 3.039 3.039 0 01-1.242-.254 3.467 3.467 0 01-1.024-.682 3.164 3.164 0 01-.7-1 2.95 2.95 0 01-.253-1.216 3.052 3.052 0 01.253-1.242 3.229 3.229 0 01.7-1.016 3.266 3.266 0 011.024-.682 3.153 3.153 0 011.242-.245 3.391 3.391 0 011.286.245 3.31 3.31 0 011.059.682 3.263 3.263 0 01.718 1.016 2.978 2.978 0 01.262 1.242zm-.56 4.97v18.147h-5.425V17.232zM172.727 17.232l-7.034 18.147h-4.936l-7.035-18.147h4.516a1.665 1.665 0 01.97.271 1.357 1.357 0 01.535.674l2.519 8.137q.333 1 .587 1.943t.446 1.89a28.975 28.975 0 011.068-3.833l2.625-8.137a1.362 1.362 0 01.524-.674 1.541 1.541 0 01.91-.271zM173.339 19.752a11.035 11.035 0 013.65-2.161 12.775 12.775 0 014.3-.709 7.856 7.856 0 012.966.534 6.394 6.394 0 012.24 1.487 6.5 6.5 0 011.409 2.266 8.163 8.163 0 01.49 2.871v11.339H185.9a2.526 2.526 0 01-1.164-.21 1.609 1.609 0 01-.657-.875l-.384-1q-.683.577-1.313 1.015a8.245 8.245 0 01-1.3.744 6.435 6.435 0 01-1.434.455 8.86 8.86 0 01-1.69.148 7.383 7.383 0 01-2.256-.324 4.691 4.691 0 01-1.724-.953 4.177 4.177 0 01-1.094-1.567 5.635 5.635 0 01-.386-2.161 4.509 4.509 0 01.491-1.986 4.9 4.9 0 011.7-1.837 10.832 10.832 0 013.255-1.392 21.831 21.831 0 015.163-.629v-.77a3.331 3.331 0 00-.656-2.3 2.418 2.418 0 00-1.865-.709 4.968 4.968 0 00-1.574.21 7.062 7.062 0 00-1.094.473q-.481.262-.936.473a2.589 2.589 0 01-1.085.21 1.561 1.561 0 01-.945-.281 2.411 2.411 0 01-.63-.665zm9.766 8.243a17.946 17.946 0 00-2.678.279 6.535 6.535 0 00-1.662.525 2.015 2.015 0 00-.849.718 1.7 1.7 0 00-.236.875 1.522 1.522 0 00.507 1.3 2.475 2.475 0 001.487.376 4.322 4.322 0 001.838-.367 5.6 5.6 0 001.593-1.191zM196.58 19.192a12.846 12.846 0 011.085-.91 6.36 6.36 0 011.2-.709 7.142 7.142 0 011.383-.455 7.408 7.408 0 011.619-.166 6.362 6.362 0 012.634.516 5.477 5.477 0 011.933 1.435 6.21 6.21 0 011.19 2.188 9.079 9.079 0 01.4 2.756v11.532H202.6V23.847a3.175 3.175 0 00-.612-2.074 2.2 2.2 0 00-1.8-.744 3.788 3.788 0 00-1.671.377A6.777 6.777 0 00197 22.429v12.95h-5.424V17.232h3.359a1.276 1.276 0 011.33.91zM224.58 21.537a3.038 3.038 0 01-.473.472 1.043 1.043 0 01-.648.176 1.388 1.388 0 01-.726-.193l-.727-.429a5.6 5.6 0 00-.944-.429 4.085 4.085 0 00-1.348-.192 3.756 3.756 0 00-1.723.368 3.186 3.186 0 00-1.2 1.049 4.848 4.848 0 00-.7 1.672 10.023 10.023 0 00-.227 2.231 6.8 6.8 0 001.007 4.008 3.226 3.226 0 002.773 1.4 3.865 3.865 0 001.5-.236 4.491 4.491 0 00.937-.525l.709-.533a1.3 1.3 0 01.813-.246 1.124 1.124 0 01.981.473l1.574 1.942a8.586 8.586 0 01-1.767 1.567 8.942 8.942 0 01-1.9.945 9.88 9.88 0 01-1.951.472 14.29 14.29 0 01-1.908.131 8.184 8.184 0 01-3.176-.63 7.782 7.782 0 01-2.66-1.828 8.765 8.765 0 01-1.82-2.949 11.052 11.052 0 01-.674-3.99 11.229 11.229 0 01.586-3.666 8.326 8.326 0 011.733-2.958 8.064 8.064 0 012.835-1.969 9.939 9.939 0 013.911-.717 9.532 9.532 0 013.745.682 8.986 8.986 0 012.905 2zM236.041 16.952a10.476 10.476 0 013.763.648 8.228 8.228 0 012.914 1.855 8.343 8.343 0 011.89 2.931 10.576 10.576 0 01.674 3.876 10.771 10.771 0 01-.674 3.911 8.412 8.412 0 01-1.89 2.958A8.3 8.3 0 01239.8 35a10.369 10.369 0 01-3.763.656 10.487 10.487 0 01-3.784-.656 8.458 8.458 0 01-2.94-1.872 8.3 8.3 0 01-1.907-2.958 10.771 10.771 0 01-.674-3.911 10.576 10.576 0 01.674-3.876 8.23 8.23 0 011.907-2.931 8.391 8.391 0 012.94-1.855 10.6 10.6 0 013.788-.645zm0 14.682a3.081 3.081 0 002.757-1.321 7.3 7.3 0 00.884-4.016 7.259 7.259 0 00-.884-4.007 3.089 3.089 0 00-2.757-1.313 3.166 3.166 0 00-2.817 1.313 7.2 7.2 0 00-.892 4.007 7.246 7.246 0 00.892 4.016 3.157 3.157 0 002.817 1.321z"/>
  </g>
</svg>
