<?xml version="1.0" encoding="utf-8"?>
<!-- Generator: Adobe Illustrator 24.3.0, SVG Export Plug-In . SVG Version: 6.00 Build 0)  -->
<svg version="1.1" id="Layer_1" xmlns="http://www.w3.org/2000/svg" xmlns:xlink="http://www.w3.org/1999/xlink" x="0px" y="0px"
	 viewBox="0 0 24 24" style="enable-background:new 0 0 24 24;" xml:space="preserve">
<path d="M16.7,0c-0.1,0-0.1,0-0.2,0.1c-0.1,0.1-0.1,0.3-0.1,0.4c0.2,0.4,0.4,0.8,0.5,1.2c0,0,0,0,0,0.1c0,0,0,0-0.1,0
	c-0.3-0.3-0.6-0.6-1-0.8c-0.5-0.3-1-0.6-1.5-0.9c-0.1,0-0.1-0.1-0.2-0.1l-0.4,0c-0.2,0-0.4,0.1-0.4,0.3c0,0.1,0,0.1-0.1,0.1
	c-0.1,0-0.2,0.1-0.2,0.2c0,0.2,0.1,0.5,0.2,0.6c0.4,0.4,0.9,0.8,1.3,1.3l0,0c0,0,0,0,0,0c0,0,0,0,0,0c0,0,0,0,0,0c0,0,0,0,0,0
	c-0.1,0-0.1-0.1-0.2-0.1c-0.3-0.2-0.6-0.4-0.9-0.6c-0.1-0.1-0.3-0.2-0.5-0.2c-0.1,0-0.3,0-0.4,0.1c-0.1,0.1-0.1,0.2-0.1,0.3
	c0,0.1,0.1,0.2,0.2,0.3c0.5,0.3,0.9,0.7,1.4,1.2c0,0,0.1,0.1,0.1,0.1c0.1,0.1,0.2,0.2,0.3,0.4c0,0.1,0,0.1,0,0.1
	c-0.4,0-0.8,0.1-1.2,0.2c-0.2,0-0.3,0.1-0.4,0.3c-0.1,0.2-0.1,0.3,0.2,0.4c0.5,0.1,1,0.3,1.5,0.5c0,0,0.1,0,0.1,0.1
	c0.1,0.1,0.2,0.2,0.4,0.3c0.4,0.2,0.8,0.5,1.2,0.6c0.1,0,0.1,0,0.2,0.1c0,0,0.1,0,0.1,0.1c0,0.2,0.1,0.3,0.3,0.3c0,0,0,0,0.1,0
	C16.9,7,17,7,17,7.1c0.1,0.2,0.1,0.5,0.2,0.7c0,0.1,0,0.1-0.1,0.1C16.7,8,16.4,8.1,16,8.2c-0.1,0-0.1,0-0.1,0.2l0.9,1.6
	c0.1,0.2,0.1,0.2,0.4,0.1c0,0,0.1-0.1,0.1,0c0,0,0.1,0.1,0,0.1c-0.1,0.1-0.2,0.3-0.3,0.4c0,0,0,0.1,0,0.1c0.1,0.2,0.2,0.3,0.3,0.5
	c0,0,0,0,0,0.1l-0.1,0.4c-0.1-0.3-0.2-0.5-0.3-0.7c-0.2-0.3-0.4-0.5-0.6-0.8c0,0-0.1-0.1-0.1-0.1c-0.2-0.2-0.5-0.3-0.7-0.5
	c-0.1-0.1-0.2-0.1-0.3-0.1c-0.4-0.1-0.7-0.1-1.1,0c-0.1,0-0.1,0-0.2-0.1c-0.1-0.1-0.2-0.3-0.3-0.4c-0.3-0.2-0.6-0.5-1-0.6
	c-0.3-0.1-0.6-0.2-0.9-0.2c-0.2,0-0.3,0-0.5,0c-0.4,0-0.8,0.1-1.1,0.3C10,8.7,10,8.7,9.9,8.7c-0.4,0.2-0.7,0.4-1,0.7
	C8.6,9.7,8.3,10,8,10.3c-0.3,0.4-0.6,0.8-0.8,1.3c0,0,0,0.1-0.1,0.1L7,11c0,0,0,0,0.1,0c0.1,0,0.2,0,0.3,0c0.1,0,0.1,0,0.1-0.1
	c0-0.1,0-0.2,0.1-0.3c0.1-0.4,0.2-0.8,0.3-1.2c0-0.1,0-0.1-0.1-0.1C7.4,9.2,7,9.1,6.6,9c-0.1,0-0.1,0-0.1-0.1C6.6,8.6,6.6,8.3,6.8,8
	c0,0,0-0.1,0.1-0.1C6.9,7.8,7,7.7,7,7.6c0-0.1,0-0.2,0.1-0.2c0.2-0.1,0.4-0.2,0.5-0.3C7.8,7,7.9,6.9,8,6.7c0.3-0.6,0.6-1.2,1-1.8
	C9,4.9,9,4.8,9.1,4.8C9.3,4.5,9.5,4.2,9.8,4c0.1-0.1,0.1-0.2,0.1-0.3c0-0.1-0.1-0.2-0.2-0.3C9.7,3.3,9.6,3.2,9.5,3.3
	c0,0-0.1,0-0.1,0c0,0,0.1,0,0.1-0.1c0.3-0.2,0.7-0.4,1-0.7c0.4-0.3,0.8-0.5,1.2-0.8c0.1,0,0.1-0.1,0-0.1c0,0,0,0,0,0
	c-0.1-0.1-0.1-0.1-0.2,0L8.1,3.7C8,3.8,8,3.8,7.9,3.6C7.8,3.4,7.8,3.1,7.7,2.8c0-0.1,0-0.1,0-0.1C8,2.5,8.3,2.2,8.5,2
	c0.1-0.1,0.2-0.2,0.2-0.4c0-0.2-0.1-0.3-0.2-0.2c-0.1,0-0.1,0.1-0.2,0.1C7.6,1.9,6.9,2.1,6.1,2.3c0,0-0.1,0-0.1,0
	C5.9,2.2,5.8,2.2,5.7,2.1c0,0,0,0-0.1,0c-0.1,0-0.2,0.1-0.3,0.1C5.2,2.5,5,2.7,4.9,2.9C4.7,3.2,4.5,3.5,4.4,3.8c0,0-0.1,0.1-0.1,0
	L3.6,2.6C3.6,2.5,3.5,2.4,3.4,2.3C3.3,2.2,3.2,2.1,3,2.1c0,0-0.1,0-0.1,0c0,0.1-0.1,0.2-0.1,0.3C3,2.8,3,3,3.1,3.3
	c0.1,0.5,0.2,0.9,0.4,1.4C3.6,5.1,3.7,5.6,3.9,6c0,0,0,0.1,0,0.1c-0.1,0-0.2,0.1-0.2,0.1c0,0.1,0,0.2,0.1,0.2l0,0
	c0,0.1,0,0.1,0.1,0.2c0.1,0,0.1-0.1,0.2-0.1c0,0,0.1,0,0.1,0c0.1,0.3,0.3,0.6,0.4,0.9c0,0,0,0.1,0,0.1C4.4,7.8,4.3,8.1,4.3,8.3
	c0,0.1,0,0.1-0.1,0.1C3.9,8.3,3.6,8.2,3.4,8.2c-0.1,0-0.1,0-0.1,0.1v0c-0.1,0.7-0.1,1.3-0.2,2c0,0.1,0,0.1,0.1,0.1
	c0.2,0,0.4,0.1,0.6,0.1c0,0,0.1,0,0.1,0.1c0,0.2-0.1,0.5-0.1,0.7c0,0.1,0,0.1,0,0.2c0.1,0.1,0.1,0.2,0.2,0.3c0,0.1,0.1,0.1,0,0.2
	c0,0,0,0.1,0,0.1c0,0.4,0,0.8,0,1.2c0,0.2,0,0.4,0,0.6c0,0.5,0,1.1,0.1,1.6c0,0.3,0,0.5,0,0.8c0,0.1,0,0.1,0.1,0.1
	c0.2,0,0.3,0.1,0.5,0.2c0.1,0,0.2,0.1,0.2,0.2c0,0.1,0,0.1,0,0.2c0,0.1,0,0.1,0.1,0.2c0.2,0.2,0.5,0.4,0.7,0.5c0.7,0.5,1.3,1,2,1.4
	c0.1,0,0.1,0.1,0,0.1c0,0.1-0.1,0.1-0.1,0.2c0,0.1,0,0.1,0,0.1c0.1,0.1,0.2,0.1,0.2,0.2c0.1,0.1,0.1,0.1,0,0.2c0,0-0.1,0-0.1,0
	c0,0-0.1,0-0.1,0c-0.3,0-0.6-0.1-0.9-0.2c-0.5,0-1-0.1-1.5-0.1c0,0-0.1,0-0.1,0c0,0,0,0.1,0,0.1c0,0,0.1,0,0.1,0
	c0.3,0.1,0.5,0.2,0.8,0.4c0.2,0.1,0.3,0.2,0.5,0.3c0,0,0.1,0,0.1,0C6.3,20.2,6,20,5.7,19.8c0,0,0.1,0,0.1,0c0.3,0,0.7,0.1,1,0.1
	c0.7,0.2,1.4,0.4,2.1,0.6c0.2,0.1,0.5,0.1,0.7,0.2c0.1,0,0.1,0.1,0.1,0.1c0,0,0,0,0,0c0,0,0,0-0.1,0c-0.2,0-0.3,0-0.5,0
	c-0.5,0-0.9-0.1-1.4-0.1c-0.3,0-0.7,0-1.1,0c-0.5,0-1,0.1-1.5,0.1c0,0-0.1,0-0.1,0c0,0,0,0.1,0.1,0.1c0,0,0.1,0,0.1,0
	c0.2,0,0.5,0,0.7,0c0.6,0,1.2,0,1.9,0c0.2,0,0.5,0,0.7,0c1,0.2,2.1,0.4,3.1,0.6c0.1,0,0.2,0,0.4,0.1c-0.1,0-0.1,0.1-0.2,0.1
	c-0.2,0.5-0.4,1-0.5,1.6c0,0.1,0,0.2,0.1,0.2c0.1,0,0.3,0,0.3-0.2c0,0,0,0,0,0c0-0.1,0-0.2,0.1-0.3c0,0,0-0.1,0.1-0.1
	c0.1-0.1,0.3-0.1,0.4-0.2c0.2-0.1,0.4-0.2,0.5-0.3c0.1-0.1,0.2-0.3,0.2-0.5c0-0.1,0-0.1,0.1-0.1c0.2-0.2,0.4-0.4,0.6-0.6
	c0.2-0.2,0.4-0.4,0.6-0.5c0,0,0,0,0.1,0l0.6,0.2c-0.4,0.2-0.7,0.4-1.1,0.7c0,0,0,0-0.1,0c-0.1,0-0.2,0.1-0.3,0.2
	c-0.4,0.4-0.6,0.8-0.5,1.4c0,0.4,0.2,0.5,0.6,0.4c0.6-0.1,1.1-0.7,1.2-1.4c0-0.2,0.1-0.4-0.1-0.5c-0.1-0.1-0.1-0.1-0.2-0.2
	c0,0,0,0,0,0c0.8-0.5,1.6-0.8,2.5-1.1c1-0.4,2.1-0.6,3.2-0.9l-0.1,0c-0.1,0-0.1,0-0.2,0c-0.3,0-0.6,0.1-0.9,0.1l0,0c0,0-0.1,0-0.1,0
	c0,0,0,0,0,0c0.1-0.1,0.3-0.3,0.3-0.2l0,0h0c0,0,0,0,0,0c0,0,0,0,0.1,0c0.1-0.1,0.1-0.1,0.2-0.2c0,0,0.1-0.1,0.2-0.1h0
	c0.2,0,0.3-0.2,0.5-0.3c0,0,0,0,0,0c-0.2,0-0.5,0.1-0.7,0.2c-0.5,0.2-1,0.3-1.5,0.5c-0.7,0.3-1.5,0.6-2.2,1c0,0-0.1,0-0.1,0
	l-0.1-0.5c0,0,0,0,0-0.1c0.6-0.3,1.3-0.7,1.9-0.9c0.5-0.2,1.1-0.5,1.6-0.7c0,0,0,0,0,0h0c0,0,0,0,0,0c0,0,0,0,0,0c0,0,0,0,0,0h0
	c-0.1,0.2-0.3,0.4-0.4,0.7c0,0,0.1,0,0.1,0c0.1-0.1,0.2-0.2,0.3-0.4c0.2-0.2,0.4-0.5,0.7-0.6c0,0,0,0,0,0c0,0,0,0-0.1,0
	c-0.2,0-0.5,0.1-0.7,0.2c-0.1,0-0.1,0-0.1-0.1c0-0.2,0-0.4,0-0.6c0-0.1,0-0.2,0.1-0.2c0.1-0.2,0.2-0.5,0.3-0.7
	c0-0.1,0.1-0.2,0.1-0.4c0-0.2,0.1-0.4,0.1-0.6c0-0.3,0.1-0.6,0.2-0.9c0.1-0.4,0.1-0.8,0.3-1.1c0.1-0.3,0.2-0.6,0.4-0.9
	c0.2-0.4,0.4-0.8,0.5-1.3c0-0.2,0.1-0.3,0-0.5c0-0.1-0.1-0.2-0.1-0.3c0-0.1,0-0.1,0-0.2c0-0.2,0.1-0.5-0.1-0.7c0-0.1,0-0.1,0-0.1
	c0.1-0.1,0.1-0.1,0-0.2c-0.1-0.1-0.2-0.2-0.3-0.3c-0.1-0.1-0.2-0.2-0.2-0.3c-0.1,0,0-0.1,0-0.1c0.1,0,0.3-0.1,0.4-0.2
	c0.1,0,0.1-0.1,0.1-0.1C21,8,21,7.4,21.1,6.8c0-0.1,0-0.1-0.1-0.1c-0.5,0.1-0.9,0.3-1.4,0.4c-0.1,0-0.1,0-0.2-0.1
	C19.2,6.6,19,6,18.8,5.5c0-0.1,0-0.2,0-0.3c0.1-0.2,0-0.4,0-0.6c0,0,0,0,0,0c0-0.5-0.1-1-0.3-1.5c-0.1-0.4-0.3-0.9-0.5-1.3
	c-0.2-0.4-0.5-0.9-0.7-1.3c-0.1-0.2-0.2-0.3-0.4-0.4C16.8,0,16.7,0,16.7,0L16.7,0z M14,0.3c0.1,0,0.1,0,0.2,0.1
	c0.5,0.2,1,0.5,1.5,0.8c0.2,0.2,0.5,0.3,0.7,0.5c0.1,0.1,0.2,0.2,0.3,0.3c0,0,0,0.1,0,0.1c0,0-0.1,0-0.1,0.1c0,0-0.1,0-0.1,0.1
	c0,0,0.1,0,0.1,0.1c0.1,0,0.1,0,0.2,0c0.2-0.1,0.3,0,0.4,0.2c0,0,0,0.1,0.1,0.1c0.1,0,0.1-0.1,0.1-0.1c0-0.2,0-0.3-0.1-0.4
	c-0.1-0.4-0.3-0.7-0.4-1.1c-0.1-0.1-0.1-0.3-0.2-0.4c0-0.1,0-0.1,0-0.2c0,0,0.1,0,0.1,0c0.2,0.1,0.2,0.2,0.3,0.3
	c0.1,0.1,0.2,0.3,0.3,0.4c0.1,0.3,0.3,0.5,0.4,0.8C18,2.2,18.2,2.6,18.3,3c0.1,0.4,0.2,0.7,0.3,1.1c0,0.1,0,0.3,0,0.4
	c0,0.3,0,0.5-0.1,0.8c0,0.1,0,0.1,0,0.2c0.3,0.5,0.5,1.1,0.7,1.6c0,0.1,0,0.1-0.1,0.1c-0.5,0.1-1,0.3-1.4,0.4c-0.1,0-0.1,0-0.1-0.1
	c-0.1-0.3-0.2-0.6-0.4-1c0-0.1-0.1-0.1-0.1-0.1c-0.1,0-0.1,0-0.2-0.1c-0.1-0.1-0.1-0.3-0.2-0.4c-0.1-0.1-0.3-0.1-0.4-0.1
	C16.2,6,16,6,15.9,6c-0.2,0-0.4-0.1-0.6-0.3c-0.3-0.2-0.6-0.4-0.9-0.6c-0.1,0-0.2,0-0.3-0.1c-0.3-0.1-0.6-0.1-0.8-0.2
	c-0.1,0-0.1-0.1-0.1-0.1c0-0.1,0-0.1,0.1-0.1c0.1-0.1,0.2-0.1,0.3-0.1c0.4-0.1,0.9-0.1,1.3-0.1c0.1,0,0.2,0,0.3,0.1
	c0.1,0,0.1,0,0.2,0C15.6,4.3,15.8,4.2,16,4c0,0,0.1,0,0.1-0.1c0,0,0,0,0,0c0,0,0,0,0,0l-0.1,0h0c-0.2,0-0.5,0.1-0.7,0.2
	C15.2,4.1,15,4.1,15,4c-0.3-0.5-0.8-0.9-1.3-1.3c-0.2-0.2-0.4-0.4-0.6-0.5C13,2.2,13,2.1,13,2c0-0.1,0.1,0,0.2,0
	c0.2,0.1,0.4,0.2,0.5,0.3c0.6,0.4,1.2,0.7,1.8,1.1c0,0,0,0,0.1,0c0.1,0,0.1,0,0.1-0.1c0,0,0-0.1-0.1-0.1c-0.5-0.6-1-1.1-1.5-1.7
	c-0.1-0.1-0.2-0.2-0.3-0.3c-0.1-0.1-0.2-0.2-0.2-0.3c0-0.1,0-0.1,0-0.2c0,0,0.1-0.1,0.1,0C13.9,0.8,14,0.9,14.2,1
	c0.3,0.2,0.5,0.4,0.8,0.6l0.8,0.6c0,0,0,0,0.1,0c0.1,0,0.1,0.1,0.1,0.1l0,0c0,0,0,0,0.1,0.1c0.1,0,0.1,0.1,0.2,0c0,0,0,0,0-0.1
	c0,0,0,0,0,0c0,0,0,0,0,0c0,0,0-0.1,0-0.1l-0.2-0.2C16,2,15.9,1.9,15.8,1.8c-0.3-0.3-0.7-0.6-1.1-0.8c-0.2-0.1-0.4-0.2-0.6-0.3
	c-0.1,0-0.1-0.1-0.2-0.2c0,0,0-0.1,0-0.2C13.9,0.3,14,0.3,14,0.3L14,0.3z M8.3,1.6C8.3,1.6,8.3,1.6,8.3,1.6c0.1,0,0.1,0.1,0.1,0.1
	c0,0.1,0,0.1-0.1,0.2C7.9,2.3,7.5,2.6,7.2,2.9C7,3,6.8,3,6.7,3.1c0,0-0.1,0-0.1,0C6.5,3,6.4,2.8,6.2,2.6c0-0.1,0-0.1,0-0.1
	C6.5,2.5,6.8,2.4,7,2.3c0.4-0.1,0.7-0.4,1-0.5C8.1,1.7,8.1,1.7,8.3,1.6C8.2,1.7,8.2,1.7,8.3,1.6z M5.6,2.5c0.1,0,0.1,0,0.1,0.1
	c0.1,0.1,0.1,0.1,0.2,0.2c0.2,0.3,0.4,0.5,0.6,0.7C6.8,3.7,6.9,3.8,7.1,4c0.1,0,0.1,0.1,0.1,0.2c0,0,0,0,0,0.1c0,0,0,0,0,0
	C7,4.4,6.9,4.3,6.7,4.3C6.4,4.1,6.1,3.9,5.8,3.6c0,0,0,0,0,0c-0.1-0.1-0.1-0.1-0.2,0C5.6,3.8,5.6,3.9,5.5,4c0,0,0,0.1,0,0.1
	c0,0,0.1,0.1,0.1,0.1c0,0,0,0,0.1-0.1c0-0.1,0-0.2,0.1-0.3C6,4.2,6.3,4.3,6.6,4.5L6.3,4.7C5.6,5.1,4.9,5.5,4.2,5.9
	c-0.1,0-0.1,0-0.1,0C3.8,5,3.5,4.2,3.3,3.3C3.3,3.1,3.2,2.9,3.2,2.7c0-0.1,0-0.1,0.1-0.1c0.1,0,0.1,0,0.1,0.1C3.7,3.2,4,3.8,4.3,4.3
	c0.1,0.2,0.2,0.3,0.3,0.5c0,0,0,0.1,0.1,0c0.1,0,0-0.1,0-0.1c0-0.2-0.1-0.3-0.2-0.5c0-0.1,0-0.1,0-0.2C4.6,3.8,4.8,3.6,5,3.3
	c0.1-0.2,0.3-0.5,0.5-0.7C5.5,2.5,5.5,2.5,5.6,2.5L5.6,2.5z M7.4,3C7.4,3,7.4,3,7.4,3c0.2,0.3,0.2,0.6,0.3,0.9c0,0,0,0,0,0.1
	L7.5,4.1c0,0,0,0,0,0c0,0,0,0,0-0.1L6.9,3.4c0,0,0-0.1,0-0.1C7,3.2,7.2,3.1,7.4,3C7.4,3,7.4,3,7.4,3z M9.3,3.5c0.1,0,0.1,0,0.1,0
	c0.1,0,0.1,0.1,0.1,0.2c0,0.1-0.1,0.2-0.2,0.3C9.1,4.3,8.8,4.7,8.5,5.1C8.3,5.5,8.1,5.8,7.9,6.2c0,0.1-0.1,0.1-0.1,0.2
	C7.5,6.7,7.2,6.9,6.9,7.1c-0.1,0-0.1,0.1-0.1,0.2c0,0.1,0,0.1,0,0.2c0,0.1-0.1,0.3-0.2,0.4c0,0,0,0.1-0.1,0.1L6.2,8.8c0,0,0,0,0,0
	c0,0,0,0,0,0c0,0-0.1,0-0.1,0C5.7,8.7,5.2,8.6,4.8,8.5c-0.1,0-0.1,0-0.2,0c-0.1,0-0.1-0.1-0.1-0.1c0.1-0.3,0.1-0.6,0.3-0.8
	c0-0.1,0-0.1,0-0.2c-0.2-0.3-0.3-0.7-0.5-1c0-0.1,0-0.1,0-0.1C5.2,5.8,6.1,5.2,7,4.7c0,0,0.1,0,0.1,0c0.2,0,0.3-0.1,0.4-0.2
	c0,0,0,0,0,0c0.1-0.2,0.3-0.3,0.5-0.4C8.5,3.9,8.9,3.8,9.3,3.5C9.3,3.5,9.3,3.5,9.3,3.5L9.3,3.5z M20.8,7.2L20.8,7.2L20.8,7.2
	c0,0.3,0,0.5-0.1,0.7l0,0.5c0,0.1,0,0.1-0.1,0.1c-1.1,0.4-2.2,0.8-3.4,1.2l0,0c0,0-0.1,0-0.1-0.1c-0.2-0.4-0.4-0.8-0.7-1.2
	c0-0.1,0-0.1,0-0.1L20.8,7.2C20.7,7.2,20.8,7.2,20.8,7.2z M20.4,7.6c-0.2,0-0.3,0.1-0.3,0.3c0,0.1,0.1,0.3,0.3,0.3
	c0.1,0,0.3-0.2,0.3-0.3C20.6,7.7,20.5,7.6,20.4,7.6L20.4,7.6z M3.5,8.5C3.5,8.5,3.6,8.5,3.5,8.5l2,0.5c0.6,0.2,1.3,0.3,1.9,0.5
	c0.1,0,0.1,0,0.1,0.1l-0.3,0.9c0,0,0,0.1-0.1,0.1c0,0,0,0,0,0l-1-0.1c-0.2,0-0.4-0.1-0.7-0.1c-0.7-0.1-1.4-0.2-2.1-0.3
	c0,0-0.1,0,0-0.1C3.4,9.5,3.4,9,3.5,8.5C3.5,8.5,3.5,8.5,3.5,8.5C3.5,8.5,3.5,8.5,3.5,8.5C3.5,8.5,3.5,8.5,3.5,8.5L3.5,8.5z
	 M11.7,8.6l0.1,0c0.2,0,0.4,0.1,0.6,0.2c0.1,0,0.2,0.1,0.2,0.1l0.1,0c0.1,0,0.1,0.1,0.2,0.1L12.9,9c0,0,0.1,0,0.1,0.1
	c0.1,0.1,0.1,0.1,0.2,0.2c0.2,0.2,0.4,0.4,0.5,0.7c0.1,0.2,0.1,0.4,0.1,0.6c0,0.2,0,0.4-0.1,0.6c0,0,0,0,0,0c0,0,0,0,0,0L13.5,11
	c-0.3-0.3-0.6-0.6-1-0.7c-0.3-0.1-0.7-0.1-1-0.2c-0.3,0-0.5,0-0.8,0.1c-0.2,0-0.4,0.1-0.6,0.1c-0.1,0-0.3,0.1-0.4,0.1
	c-0.1,0-0.1,0.1-0.2,0.1l0,0c-0.4,0.1-0.7,0.4-1,0.6c-0.1,0.1-0.2,0.1-0.2,0.2l0,0l-0.1,0.1c-0.2,0.1-0.3,0.3-0.5,0.4
	c-0.1,0.1-0.2,0.2-0.3,0.3c0-0.2,0.1-0.3,0.1-0.5c0.1-0.1,0.2-0.3,0.3-0.4c0-0.1,0.1-0.1,0.1-0.2c0.1-0.1,0.2-0.3,0.3-0.4
	c0.1-0.1,0.2-0.2,0.2-0.3s0.2-0.2,0.2-0.3c0,0,0.1-0.1,0.1-0.1l0,0C8.9,9.8,9,9.8,9.1,9.7l0,0l0.1-0.1C9.4,9.4,9.7,9.2,10,9
	C10,9,10,9,10,9l0.1,0c0,0,0,0,0,0c0.1,0,0.1,0,0.2-0.1l0.1,0c0.1,0,0.3-0.1,0.4-0.1C11.1,8.6,11.4,8.6,11.7,8.6z M4.1,9
	C4,9,4,9,3.9,9.1c-0.2,0.2-0.2,0.5,0,0.7c0,0,0,0,0,0c0.1,0.1,0.3,0.1,0.4,0c0.1-0.1,0.2-0.3,0.1-0.5C4.3,9.1,4.3,9,4.1,9L4.1,9z
	 M14.5,9.7c0.1,0,0.2,0,0.2,0l0,0c0.3,0.1,0.5,0.1,0.8,0.3c0,0,0.1,0,0.1,0.1c0.2,0.1,0.3,0.2,0.4,0.4c0.2,0.2,0.4,0.5,0.6,0.8
	c0,0,0,0,0,0v0c-0.1,0-0.1-0.1-0.2-0.1c-0.2-0.1-0.4-0.3-0.7-0.4c-0.1,0-0.2-0.1-0.3-0.1c-0.3-0.1-0.6-0.1-0.9,0c-0.1,0-0.2,0-0.3,0
	c-0.1,0-0.1,0-0.1-0.1c0-0.2,0-0.5-0.1-0.7c0,0,0-0.1,0.1-0.1C14.3,9.7,14.4,9.7,14.5,9.7L14.5,9.7z M11.8,10.5
	c0.4,0,0.8,0.1,1.2,0.3c0.1,0.1,0.3,0.2,0.4,0.3l0,0c0.1,0.1,0.2,0.3,0.3,0.4c0.1,0.1,0.1,0.3,0,0.4c-0.1,0.4-0.3,0.7-0.6,1
	c-0.3,0.3-0.6,0.4-0.9,0.6c-0.4,0.3-0.9,0.4-1.4,0.5c-0.6,0.1-1.3,0.1-1.9,0.2c-0.2,0-0.5,0-0.7,0.1c-0.3,0-0.5,0.2-0.7,0.4
	c-0.1,0.1-0.1,0.2-0.2,0.3c0-0.1,0-0.3,0-0.4c0.1-0.2,0.3-0.4,0.5-0.5c0.4-0.2,0.9-0.3,1.3-0.4c0.4-0.1,0.7-0.1,1.1-0.2
	c0.5-0.1,1-0.3,1.4-0.6c0.2-0.1,0.5-0.3,0.7-0.5c0.1-0.2,0.2-0.4,0.1-0.6c0,0,0-0.1,0-0.1c0,0,0,0-0.1,0c-0.2,0.2-0.4,0.3-0.6,0.4
	c-0.3,0.2-0.7,0.3-1,0.4C10.2,12.9,9.6,13,9,13c-0.4,0-0.8,0.1-1.2,0.2c-0.3,0.1-0.7,0.2-1,0.5c0,0-0.1,0.1-0.1,0.1l0,0l0,0v0
	c0,0,0,0,0,0c0-0.1,0-0.1,0.1-0.2l0.6-1c0,0,0,0,0-0.1c0.3-0.3,0.7-0.7,1-1c0.6-0.5,1.3-0.9,2.1-1c0.2,0,0.4-0.1,0.6-0.1
	C11.3,10.5,11.6,10.5,11.8,10.5L11.8,10.5z M14.7,10.9c0.1,0,0.3,0,0.4,0c0.2,0,0.4,0.1,0.6,0.2c0.1,0,0.2,0.1,0.3,0.1
	c0.2,0.1,0.4,0.3,0.7,0.4c0,0,0.1,0.1,0.1,0.1l0.2,0.3c0,0,0,0,0,0.1c0,0,0,0,0,0c0,0,0,0,0,0c-0.1-0.1-0.2-0.1-0.3-0.2
	c-0.4-0.2-0.8-0.4-1.2-0.5c-0.1,0-0.2-0.1-0.3-0.1l-0.2,0c0,0,0,0,0,0c0,0,0,0,0,0c0,0,0,0,0,0l0,0c0.2,0.1,0.6,0.2,0.9,0.3l0.1,0
	c0.2,0.1,0.3,0.2,0.4,0.3l0.3,0.2c0.4,0.3,0.6,0.7,0.8,1.2c0,0,0,0,0,0l0,0c0,0,0,0.1,0,0.1c0,0,0,0,0,0c0,0.1-0.1,0-0.1,0
	c-0.2,0-0.4,0-0.6-0.1h0c-0.1,0-0.1,0-0.2-0.1c-0.2-0.1-0.4-0.2-0.6-0.2c-0.3-0.1-0.4-0.3-0.7-0.4c-0.4-0.2-0.7-0.5-1-0.8
	c0,0-0.1-0.1-0.1-0.1c0-0.1,0-0.1-0.1-0.2l0-0.1c0,0,0,0,0-0.1l0,0c0,0,0,0,0,0v0l0,0c0,0,0-0.1,0-0.1c0,0,0,0,0,0l0,0l0,0
	c0,0,0,0,0,0l0,0l0,0l0,0l0,0l0,0l0,0l0,0l0,0c0,0,0,0,0,0c0,0,0,0,0,0V11c0-0.1,0-0.1,0.1-0.1c0.1,0,0.2,0,0.2,0l0.1,0
	C14.6,10.9,14.6,10.9,14.7,10.9z M15,11.4C15,11.4,15,11.4,15,11.4L15,11.4C15,11.4,15,11.4,15,11.4C15,11.4,15,11.4,15,11.4z
	 M15.8,11.8C15.9,11.8,15.9,11.8,15.8,11.8L15.8,11.8L15.8,11.8z M13.9,11.9L13.9,11.9C14,11.9,14,11.9,13.9,11.9
	c0.1,0.2,0.2,0.3,0.3,0.4c0.1,0.1,0.3,0.2,0.4,0.3c0.3,0.2,0.5,0.5,0.8,0.7c0.2,0.2,0.4,0.2,0.6,0.3c0.5,0.1,1,0.2,1.6,0.3
	c0.1,0,0.3,0.1,0.4,0.2h0c0,0,0,0,0,0c-0.3,0-0.6,0-0.9,0c-0.3,0-0.6,0-1,0.1c-0.1,0-0.2,0-0.3,0c-0.3-0.1-0.6-0.2-0.9-0.3
	c-0.3-0.1-0.6-0.4-0.9-0.6c0,0,0,0-0.1-0.1c-0.1-0.1-0.2-0.2-0.2-0.3l0,0c-0.1-0.2-0.1-0.4,0-0.7C13.9,12.1,13.9,12,13.9,11.9
	C13.9,11.9,13.9,11.9,13.9,11.9z M13.7,13.1c0.1,0.2,0.2,0.4,0.4,0.6l0,0l0,0c0,0,0.1,0.1,0.1,0.1c0,0,0,0,0,0l0,0
	c0.2,0.1,0.4,0.3,0.5,0.4l0.3,0.2c0.1,0.1,0.3,0.2,0.5,0.3c0,0,0.1,0,0.1,0.1c0.1,0.1,0.3,0.1,0.4,0.1l0,0c0.1,0,0.2,0,0.2,0
	c0,0,0.1,0,0.1,0c0,0,0,0,0.1,0c0,0,0,0,0.1,0.1c0.1,0.1,0.1,0.2,0.1,0.2c0,0,0,0,0,0c0,0,0,0,0,0c0,0,0,0,0,0
	c0,0.1-0.1,0.1-0.1,0.2l0,0c0,0.1,0,0.2,0,0.3c0.1-0.1,0.2-0.2,0.3-0.4c0-0.1,0.1-0.1,0.1-0.2c0,0,0-0.1,0-0.1c0,0,0-0.1,0-0.1
	c0,0,0,0,0,0c0,0,0,0,0,0c0,0,0,0,0,0c0,0,0,0,0.1,0c0,0,0.1,0,0.1,0c0,0,0,0,0,0.1v0c0,0.1,0,0.2-0.1,0.2c0,0,0,0,0,0.1
	c0,0.1-0.1,0.3-0.2,0.4c-0.1,0.2-0.3,0.3-0.5,0.3h-0.1c0,0-0.1,0-0.1,0c0,0-0.1,0-0.1,0.1c0,0,0,0.1-0.1,0.1l0,0
	c-0.1,0.2-0.2,0.4-0.4,0.6c-0.1,0.1-0.2,0.1-0.2,0.2c-0.1,0.1-0.3,0.2-0.5,0.2l0,0l0,0l0,0c0,0,0,0,0,0c0,0-0.1,0,0,0.1
	c0,0.1,0.1,0.1,0.1,0.1c0,0,0,0,0,0c0.1,0,0.1,0,0.1,0c0,0,0.1,0,0.1-0.1c0,0,0.1,0,0.1,0c0,0.1,0,0.2-0.1,0.3l0,0.1
	c0,0.1-0.1,0.1-0.1,0.2c0,0,0,0.1-0.1,0.1c-0.1,0.2-0.2,0.5-0.4,0.7c-0.1,0.1-0.2,0.2-0.4,0.3c0,0-0.1,0-0.1,0.1
	c-0.1,0.1-0.2,0.1-0.4,0.2l-0.1,0l-0.1,0l0,0c0,0-0.1,0-0.1,0c-0.1,0-0.1,0-0.2,0.1c-0.2,0.1-0.4,0.1-0.6,0.1c0,0,0,0,0,0
	c-0.1,0-0.1,0-0.2,0c-0.1,0-0.1,0-0.2,0c-0.2,0-0.4,0-0.6,0l0,0c-0.1,0-0.1,0-0.1-0.1c-0.1,0-0.1-0.1-0.2-0.1c0,0-0.1,0-0.1-0.1
	c-0.1,0-0.1-0.1-0.2-0.1c-0.1-0.1-0.2-0.2-0.2-0.3c0-0.1-0.1-0.1-0.1-0.2c0,0,0,0,0-0.1c-0.1-0.1-0.2-0.3-0.3-0.4
	c0,0-0.1-0.1-0.1-0.1c0,0,0,0-0.1-0.1c-0.1-0.1-0.2-0.2-0.3-0.3L10.2,18c-0.1-0.1-0.2-0.2-0.4-0.3c-0.1-0.1-0.2-0.1-0.3-0.2l-0.1,0
	c-0.3-0.2-0.5-0.4-0.6-0.8c0-0.1-0.1-0.1-0.2-0.1c-0.1,0-0.2,0-0.3,0l0,0c0,0-0.1,0-0.1-0.1l0,0c0,0,0-0.1-0.1-0.1
	c-0.1-0.2-0.3-0.4-0.4-0.7c0,0,0,0,0,0l0,0l0,0c0-0.1,0-0.1-0.1-0.2l0-0.1c0,0,0-0.1,0-0.2l0,0c0,0,0,0,0,0c0,0,0,0,0,0
	c0-0.1,0.1-0.1,0.1-0.1c0,0,0,0,0.1-0.1c0,0,0.1-0.1,0.1-0.1c0.1,0,0.1-0.1,0.2-0.1c0.3-0.1,0.6-0.2,0.9-0.3c0,0,0,0,0.1,0
	c0,0,0.1,0,0.1,0c0,0,0.1,0,0.1,0l0.1,0c0,0,0,0,0.1,0c0.3,0,0.6,0,0.9-0.1c0.2,0,0.4,0,0.5-0.1c0.4,0,0.8-0.2,1.1-0.3
	c0,0,0.1,0,0.1-0.1l0.1,0c0.1-0.1,0.3-0.2,0.4-0.2c0,0,0,0,0.1,0l0,0v0c0,0,0,0,0,0l0,0c-0.1,0.2-0.3,0.3-0.5,0.4c0,0,0,0-0.1,0
	c-0.1,0-0.1,0.1-0.2,0.1c0.2,0,0.4,0,0.6-0.1c0.3-0.1,0.7-0.3,0.9-0.6C13.5,13.5,13.6,13.3,13.7,13.1z M10.4,13.1
	c-0.1,0.1-0.2,0.1-0.3,0.1c-0.6,0.1-1.1,0.2-1.7,0.3C8,13.6,7.6,13.8,7.3,14c0,0,0,0-0.1,0c0,0,0,0,0,0c0,0,0,0,0,0
	c0-0.1,0-0.2,0.2-0.3c0.2-0.1,0.4-0.2,0.5-0.3c0.2-0.1,0.5-0.1,0.7-0.2c0.4,0,0.8-0.1,1.2-0.1L10.4,13.1L10.4,13.1z M12.8,14.4
	L12.8,14.4C12.8,14.4,12.8,14.4,12.8,14.4c-0.1,0.2-0.1,0.3,0,0.4c0,0.1,0,0.2,0.1,0.3c0.1,0.2,0.3,0.3,0.5,0.3c0.2,0,0.2,0,0.2,0.2
	c0,0.1,0,0.1,0.1,0.2c0.1,0.1,0.2,0.1,0.4,0.1c0.1,0,0.2,0,0.2,0.1c0.1,0.1,0.2,0.1,0.3,0.1c0.1,0,0.2,0,0.3,0c0.1,0,0.1,0,0.2,0
	c0.2-0.2,0.5-0.4,0.7-0.6c0,0-0.1,0-0.1,0c-0.1,0.1-0.3,0.1-0.4,0.2c0,0-0.1,0-0.1,0c-0.2,0-0.5,0.1-0.7,0.1c-0.1,0-0.3-0.1-0.4-0.1
	c-0.1,0-0.1-0.1-0.1-0.2c0,0,0.1,0,0.1,0c0.1,0,0.3,0.1,0.4,0.1c0.3,0,0.6-0.1,0.9-0.2l0.3-0.1c0,0,0.1,0,0-0.1c0-0.1-0.1,0-0.1,0
	c-0.6,0.1-1.3,0.1-1.9,0c-0.2,0-0.4,0-0.4-0.3c0-0.1,0-0.1-0.1-0.2C13,14.5,12.9,14.5,12.8,14.4C12.9,14.4,12.8,14.4,12.8,14.4z
	 M12.2,14.4c0,0-0.1,0.1-0.1,0.1c-0.1,0.1-0.1,0.2-0.2,0.3C11.8,15,11.7,15,11.5,15c-0.6-0.1-1.1-0.1-1.7-0.2c0,0-0.1,0-0.1,0
	c-0.2,0.1-0.4,0.3-0.5,0.5c0,0,0,0,0,0c0,0,0,0,0.1,0c0.3-0.1,0.6-0.1,0.9-0.1c0.4,0,0.8,0.1,1.2,0.2c0.1,0,0.1,0,0.2,0
	c0.1,0.1,0.2,0.2,0.2,0.3c0.1,0.2,0.1,0.4,0.1,0.6c0,0.2,0,0.3-0.1,0.4c-0.1,0.1-0.2,0.2-0.2,0.3c0.2,0,0.3,0,0.4,0.2
	c0.1,0.1,0.1,0.1,0.2,0.2c0.2,0.1,0.4,0.1,0.5,0c0,0,0,0,0.1-0.1c0.1-0.1,0.1-0.2,0.2-0.3c0.1-0.1,0.2-0.3,0.3-0.3
	c0.1,0,0.1-0.1,0-0.1c-0.1-0.1-0.2-0.1-0.3,0c-0.2,0.1-0.3,0.2-0.4,0.4c0,0-0.1,0.1-0.1,0.1c-0.1,0-0.1,0-0.2,0
	c-0.1-0.1-0.1-0.1-0.2-0.2c-0.1,0-0.1-0.1,0-0.1c0.1-0.1,0.1-0.3,0.1-0.4c0-0.3-0.1-0.6-0.3-0.9c0,0,0,0,0-0.1
	c0.2-0.2,0.4-0.4,0.4-0.7C12.3,14.5,12.3,14.5,12.2,14.4C12.3,14.4,12.2,14.4,12.2,14.4z M16.7,14.5c0.2,0,0.4,0.1,0.6,0.2
	c0,0,0,0,0,0l0,0c-0.3,0-0.5,0.1-0.8,0c-0.1,0-0.2,0-0.3,0c-0.2,0-0.3-0.1-0.5-0.2h0c0,0,0,0,0,0c0,0,0.1,0,0.1,0c0,0,0.1,0,0.1,0
	C16.1,14.6,16.4,14.5,16.7,14.5C16.6,14.5,16.7,14.5,16.7,14.5z M8,15.2C8,15.2,8,15.2,8,15.2c-0.1,0-0.1,0.1-0.1,0.1
	c0,0.2,0.1,0.4,0.3,0.6c0.1,0.1,0.2,0.1,0.2,0.2c0,0,0,0.1,0.1,0.1c0.1,0,0-0.1,0-0.1c0-0.1,0-0.2-0.1-0.3c-0.1-0.1-0.1-0.1-0.1-0.2
	C8.2,15.5,8.2,15.3,8,15.2C8.1,15.2,8,15.2,8,15.2L8,15.2z M9.9,15.5c-0.1,0-0.2,0.1-0.4,0.1c-0.1,0-0.1,0.1,0,0.1
	c0,0,0.1,0.1,0.1,0c0.2-0.1,0.4,0,0.5,0.1c0.1,0.1,0.3,0.2,0.5,0.1c0.1,0,0.2-0.1,0.3-0.1c0,0,0.1,0,0.1,0c0.1,0,0.3,0,0.4-0.1
	c0,0,0.1,0,0.1,0c0,0,0-0.1-0.1-0.1c0,0,0,0-0.1,0c-0.1,0-0.3,0-0.4,0c-0.3,0.1-0.6,0.1-0.9,0C10,15.6,10,15.6,9.9,15.5L9.9,15.5z
	 M13.5,17.3C13.5,17.3,13.5,17.3,13.5,17.3c-0.2,0.1-0.4,0.1-0.6,0.1c-0.1,0-0.2,0-0.3,0c-0.2,0.2-0.3,0.1-0.4,0c0,0,0,0,0,0
	c-0.2-0.1-0.4-0.1-0.6,0c-0.1,0.1-0.2,0.1-0.3,0.1c-0.1,0-0.1,0-0.2,0c0,0-0.1,0-0.1,0.1c-0.1,0.1-0.1,0.1,0,0.1c0,0,0,0,0.1,0
	c0.2,0.1,0.4,0,0.6-0.1c0.2-0.1,0.4-0.1,0.5,0c0.2,0.1,0.3,0.1,0.5,0c0.2-0.1,0.4-0.2,0.7-0.2c0,0,0.1,0,0.1,0c0.1,0.1,0.2,0,0.3,0
	c0,0,0,0,0-0.1C13.7,17.5,13.6,17.4,13.5,17.3C13.6,17.3,13.6,17.3,13.5,17.3L13.5,17.3z M12.7,18c-0.2,0-0.5,0-0.7,0.1
	c-0.2,0.1-0.4,0.1-0.5,0.3c-0.1,0.1,0,0.3-0.1,0.4c0,0.1,0,0.2,0.1,0.3c0,0,0,0.1,0.1,0.1c0,0,0.1,0,0.1-0.1c0-0.1,0.1-0.2,0.1-0.3
	c0-0.2,0.1-0.3,0.3-0.4c0.2-0.1,0.3-0.1,0.5-0.2c0,0,0.1,0,0.1,0c0.2,0,0.4,0,0.6,0.1c0,0,0,0,0.1,0c0.1,0,0.1,0,0-0.1
	C13.2,18.1,13,18,12.7,18z M10.5,18.7L10.5,18.7c0.1,0.1,0.2,0.2,0.3,0.4c0.2,0.3,0.4,0.5,0.7,0.7c0.1,0.1,0.3,0.2,0.4,0.2l0,0l0,0
	c0,0,0,0,0,0c0,0,0,0,0,0h0c0,0,0,0,0,0c-0.2,0-0.3,0-0.5,0.1c-0.1,0-0.2,0-0.3,0.1c-0.1,0-0.2,0-0.2,0.1h0c0,0,0,0,0,0.1
	c0,0,0,0.1,0.1,0.1c0.1,0,0.2,0,0.3,0c0.1,0,0.2,0,0.4,0c0.3,0,0.5,0,0.8,0c-0.4,0.1-0.8,0.3-1.2,0.5c-0.2,0.1-0.4,0.2-0.6,0.3
	c0,0,0,0,0,0.1c0,0,0,0.1-0.1,0.1h0c0,0,0,0,0,0c-0.1,0-0.2,0-0.3-0.1c0,0,0-0.1,0-0.1v-0.5c0,0,0-0.1,0-0.1
	C10,20.5,10,20.3,10,20.3c0,0,0-0.1,0-0.1l0.3-0.3c0.1-0.1,0.1-0.1,0-0.2c-0.1-0.2-0.1-0.3,0-0.5C10.4,19,10.5,18.9,10.5,18.7z
	 M15.1,18.9C15.1,18.9,15.1,18.9,15.1,18.9L15.1,18.9C15.1,18.9,15.1,19,15.1,18.9c0.2,0.3,0.3,0.6,0.4,0.8c0,0.1,0,0.1,0,0.1
	c-0.1,0.1-0.1,0.3-0.1,0.5c0.1,0.2,0,0.3-0.2,0.4c0,0-0.1,0-0.1,0c0,0-0.1,0-0.1,0c-0.4-0.3-0.8-0.3-1.2-0.5c-0.1,0-0.1,0-0.2-0.1
	c-0.1,0-0.1-0.1-0.1-0.1c0,0,0,0,0,0c0,0,0,0,0.1,0c0.5,0.1,1,0.2,1.4,0.4c0,0,0,0,0,0c0,0,0,0,0-0.1c0-0.1,0-0.2-0.1-0.3
	c-0.3-0.1-0.6-0.2-1-0.2c-0.1,0-0.1,0-0.1,0c0.2-0.1,0.5-0.2,0.7-0.4c0,0,0.1,0,0.1-0.1L15.1,18.9L15.1,18.9z M13.2,20L13.2,20
	C13.3,20,13.3,20,13.2,20c0.1,0.1,0.1,0.1,0,0.1c-0.1,0-0.2,0-0.3,0c-0.1,0-0.2,0-0.3,0c-0.1,0-0.1,0-0.1-0.1c0,0,0,0,0,0
	c0,0,0,0,0,0h0.2C13,20.1,13.1,20.1,13.2,20L13.2,20z M13.2,20.4C13.2,20.4,13.3,20.4,13.2,20.4c0.3,0.1,0.6,0.2,0.9,0.4
	c-0.1,0.1-0.3,0.2-0.4,0.3c-0.2,0.2-0.4,0.4-0.6,0.6c-0.1,0-0.1,0-0.1,0c-0.4-0.2-0.7-0.4-1.1-0.5C11.7,21,11.5,21,11.3,21
	c0,0,0.1,0,0.1,0c0.4-0.1,0.7-0.3,1.1-0.4c0.1,0,0.2,0,0.3,0C12.9,20.5,13.1,20.5,13.2,20.4C13.2,20.4,13.2,20.4,13.2,20.4z
	 M11.1,21.1C11.1,21.1,11.1,21.1,11.1,21.1c0.3,0.1,0.5,0.2,0.7,0.3c0,0,0,0,0,0c0,0,0,0,0,0v0c0,0,0,0,0,0c0,0,0,0,0,0l0,0
	c0,0,0,0,0,0l-0.9-0.2C10.9,21.2,11,21.1,11.1,21.1z M19.3,21.7c-0.1,0-0.3,0.1-0.4,0.1c0,0,0,0-0.1,0c-0.1-0.1-0.2-0.1-0.3,0
	c-0.1,0.1-0.1,0.1-0.1,0.2c-0.1,0.5-0.3,1-0.4,1.5c0,0.2,0,0.3,0.2,0.2c0.2,0,0.2-0.1,0.3-0.3c0-0.2,0.1-0.4,0.1-0.6
	c0.1,0.2,0.3,0.4,0.4,0.5c0.1,0.2,0.3,0.3,0.5,0.4c0.1,0.1,0.3,0,0.4-0.1c0.1-0.1,0.1-0.1,0.1-0.2c0-0.1-0.1-0.1-0.2-0.1
	c-0.1,0-0.1,0-0.2-0.1c-0.1-0.1-0.3-0.3-0.4-0.4c-0.1-0.1-0.1-0.1,0-0.2c0.3-0.2,0.3-0.4,0.3-0.7C19.6,21.8,19.5,21.7,19.3,21.7
	C19.3,21.7,19.3,21.7,19.3,21.7z M8.5,21.7C8.5,21.7,8.4,21.7,8.5,21.7c-0.1,0.1-0.2,0.1-0.2,0.1c-0.2,0-0.5,0-0.7,0.2
	c-0.4,0.4-0.6,0.8-0.6,1.4c0,0.4,0.2,0.5,0.6,0.5c0.7-0.2,1.2-0.8,1.3-1.6C8.9,22.1,8.8,21.8,8.5,21.7C8.6,21.7,8.5,21.7,8.5,21.7
	L8.5,21.7z M6.6,21.8c-0.2,0-0.4,0.1-0.6,0.2c-0.3,0.3-0.5,0.7-0.6,1.1c0,0.2,0,0.3,0.1,0.5c0.1,0.1,0.2,0.2,0.3,0.1
	c0.3-0.1,0.6-0.2,0.9-0.3c0.1,0,0.2-0.1,0.2-0.2c0.1-0.1,0.1-0.1,0.1-0.2c0-0.1,0-0.1-0.1-0.1c-0.1,0-0.1,0-0.2,0
	c-0.2,0.1-0.4,0.2-0.6,0.2c-0.1,0-0.1,0-0.2-0.1c0,0,0-0.1,0-0.1c0-0.2,0.1-0.3,0.2-0.5c0.1-0.1,0.1-0.2,0.2-0.3
	c0.1-0.1,0.3-0.1,0.4,0c0.1,0,0.1,0,0.2,0C6.9,22.1,7,22.1,7,22c0,0,0-0.1,0-0.1C6.8,21.8,6.7,21.8,6.6,21.8L6.6,21.8z M15.8,21.8
	c-0.2,0-0.4,0.1-0.5,0.2c-0.2,0.2-0.2,0.3-0.1,0.5c0.1,0.2,0.2,0.3,0.3,0.4c0.1,0.1,0.1,0.2,0.2,0.3c0,0.1,0,0.1-0.1,0.2
	c0,0-0.1,0-0.1,0c-0.1-0.1-0.3-0.1-0.4-0.2c0,0-0.1-0.1-0.1-0.1c0-0.1-0.1-0.1-0.1-0.1c-0.1,0-0.2,0-0.2,0.1
	c-0.1,0.1-0.1,0.3,0.1,0.4c0.3,0.2,0.6,0.4,0.9,0.4c0.3,0,0.5-0.3,0.4-0.5c0-0.1-0.1-0.2-0.2-0.3c-0.1-0.2-0.2-0.3-0.4-0.5
	c-0.1-0.1,0-0.2,0.1-0.3c0.1,0,0.2,0,0.4,0.1c0.1,0.1,0.2,0,0.3-0.1c0-0.1,0-0.1-0.1-0.2C16.1,21.9,15.9,21.8,15.8,21.8L15.8,21.8z
	 M17.7,21.9c-0.1,0-0.3,0-0.4,0c-0.2,0-0.3,0.1-0.4,0.2c0,0,0,0,0,0c-0.2,0-0.3,0.2-0.3,0.4c-0.1,0.3-0.2,0.7-0.3,1
	c0,0.1,0,0.1,0.1,0.2c0.1,0,0.1,0,0.2,0c0.3-0.1,0.6-0.2,1-0.1c0,0,0.1,0,0.1,0c0.1,0,0.1-0.1,0.1-0.2c0-0.1-0.1-0.1-0.2-0.1
	c-0.1,0-0.1,0-0.2,0c-0.2,0-0.4,0-0.6,0.1c0-0.2,0-0.2,0.3-0.2c0.2,0,0.3,0,0.5-0.1c0.1,0,0.2-0.1,0.2-0.2c0-0.1,0-0.1-0.1-0.1
	c-0.1,0-0.1,0-0.2,0l-0.5,0c0-0.1,0-0.1,0.1-0.1c0-0.1,0-0.2,0.1-0.2c0.1,0,0.2,0,0.2,0c0.2,0,0.4,0,0.6-0.1c0.1,0,0.1-0.1,0.2-0.1
	c0.1-0.1,0-0.2-0.1-0.2C18,21.9,17.8,21.9,17.7,21.9L17.7,21.9z M11,21.9c-0.1,0-0.1,0-0.2,0.1c-0.1,0.1-0.3,0.3-0.4,0.4l-0.4,0.5
	c0,0,0,0.1-0.1,0c0,0,0-0.1,0-0.1c0-0.1,0-0.2,0-0.3c0-0.1,0-0.3,0-0.4c0-0.2-0.2-0.2-0.3-0.1c0,0-0.1,0.1-0.1,0.1
	c-0.1,0.1-0.2,0.3-0.3,0.4c-0.2,0.3-0.4,0.7-0.7,1c-0.1,0.1-0.1,0.1-0.1,0.2c0,0.1-0.1,0.2,0,0.2C8.5,24,8.6,24,8.7,24
	c0.1,0,0.1-0.1,0.2-0.1L9.5,23c0,0,0,0,0.1,0c0,0,0,0.1,0,0.1c0,0.1,0,0.3,0,0.4c0,0.2,0.2,0.2,0.3,0.2c0.1,0,0.1-0.1,0.2-0.2
	c0.1-0.1,0.2-0.2,0.3-0.4c0.1-0.1,0.2-0.3,0.3-0.4c0,0.1,0,0.2,0,0.3c0,0.2,0,0.4,0,0.6c0,0.1,0.1,0.2,0.2,0.2c0.1,0,0.2,0,0.3-0.1
	c0.1-0.1,0.1-0.2,0-0.3c0,0-0.1-0.1-0.1-0.1c0-0.1,0-0.3,0-0.4c0-0.2,0.1-0.5,0.1-0.7C11.2,22.1,11.2,22,11,21.9
	C11.1,21.9,11.1,21.9,11,21.9z M19.1,22.1c0.1,0,0.2,0.1,0.1,0.2c0,0,0,0.1-0.1,0.1c-0.1,0.2-0.3,0.3-0.5,0.4c0-0.1,0.1-0.3,0.1-0.4
	C18.8,22.2,18.9,22.1,19.1,22.1z M12.4,22.1c0.1,0,0.1,0,0.1,0c0.1,0,0.1,0.1,0,0.2c0,0.1-0.1,0.1-0.2,0.2c-0.1,0.1-0.3,0.2-0.5,0.2
	c0.1-0.2,0.1-0.4,0.2-0.6C12.2,22.1,12.3,22.1,12.4,22.1L12.4,22.1z M14,22.2c0.1,0,0.1,0,0.2,0c0.1,0,0.2,0.1,0.1,0.3
	c0,0.3-0.2,0.6-0.4,0.8c-0.1,0.1-0.2,0.1-0.3,0.1c-0.1,0-0.3-0.1-0.2-0.2c0-0.3,0.1-0.6,0.3-0.9C13.8,22.3,13.9,22.2,14,22.2z
	 M8.1,22.2c0.1,0,0.1,0,0.2,0c0.1,0,0.1,0.1,0.1,0.3c0,0.3-0.2,0.6-0.4,0.8c-0.1,0.1-0.2,0.1-0.3,0.1c-0.2,0-0.3-0.1-0.3-0.2
	c0-0.3,0.1-0.6,0.3-0.9C7.9,22.3,8,22.2,8.1,22.2z"/>
</svg>
